<svg xmlns="http://www.w3.org/2000/svg" viewBox="0 0 380 120" width="380" height="120">
  <defs>
    <linearGradient id="sgCc" x1="0%" y1="0%" x2="100%" y2="100%">
      <stop offset="0%" stop-color="#2563EB"/>
      <stop offset="100%" stop-color="#3B82F6"/>
    </linearGradient>
  </defs>
  <style>
    .wmC { font-family: 'Inter', system-ui, sans-serif; font-weight: 800; font-size: 48px; letter-spacing: -2px; font-style: italic; }
  </style>
  <!-- Hexagon symbol (no background) -->
  <polygon points="60,22 84,36 84,64 60,78 36,64 36,36" fill="url(#sgCc)" opacity="0.12" stroke="url(#sgCc)" stroke-width="2.5"/>
  <polygon points="32,20 44,13 56,20 56,34 44,41 32,34" fill="none" stroke="url(#sgCc)" stroke-width="2" opacity="0.6"/>
  <polygon points="64,20 76,13 88,20 88,34 76,41 64,34" fill="none" stroke="url(#sgCc)" stroke-width="2" opacity="0.6"/>
  <polygon points="48,66 60,59 72,66 72,80 60,87 48,80" fill="none" stroke="url(#sgCc)" stroke-width="2" opacity="0.6"/>
  <polygon points="20,48 32,41 44,48 44,62 32,69 20,62" fill="none" stroke="url(#sgCc)" stroke-width="1.5" opacity="0.35"/>
  <polygon points="76,48 88,41 100,48 100,62 88,69 76,62" fill="none" stroke="url(#sgCc)" stroke-width="1.5" opacity="0.35"/>
  <circle cx="60" cy="50" r="7" fill="url(#sgCc)"/>
  <circle cx="60" cy="50" r="14" fill="none" stroke="url(#sgCc)" stroke-width="1.5" opacity="0.3"/>
  <!-- Wordmark (italic) -->
  <text x="124" y="76">
    <tspan class="wmC" fill="#111827">My</tspan><tspan class="wmC" fill="#2563EB">Crew</tspan>
  </text>
</svg>
