<svg xmlns="http://www.w3.org/2000/svg" viewBox="0 0 120 120" width="120" height="120">
  <defs>
    <linearGradient id="sgD" x1="0%" y1="0%" x2="100%" y2="100%">
      <stop offset="0%" stop-color="#2563EB"/>
      <stop offset="100%" stop-color="#3B82F6"/>
    </linearGradient>
  </defs>
  <!-- No background — same hexagon layout as 시안03 -->
  <!-- Central hexagon (larger, filled) -->
  <polygon points="60,30 78,42 78,66 60,78 42,66 42,42" fill="url(#sgD)" opacity="0.12" stroke="url(#sgD)" stroke-width="2.5"/>
  <!-- Top-left hex -->
  <polygon points="38,28 48,22 58,28 58,40 48,46 38,40" fill="none" stroke="url(#sgD)" stroke-width="2" opacity="0.7"/>
  <!-- Top-right hex -->
  <polygon points="62,28 72,22 82,28 82,40 72,46 62,40" fill="none" stroke="url(#sgD)" stroke-width="2" opacity="0.7"/>
  <!-- Bottom hex -->
  <polygon points="50,68 60,62 70,68 70,80 60,86 50,80" fill="none" stroke="url(#sgD)" stroke-width="2" opacity="0.7"/>
  <!-- AI core dot in center -->
  <circle cx="60" cy="54" r="6" fill="url(#sgD)"/>
  <!-- Pulse ring -->
  <circle cx="60" cy="54" r="12" fill="none" stroke="url(#sgD)" stroke-width="1.5" opacity="0.4"/>
</svg>
