<svg xmlns="http://www.w3.org/2000/svg" viewBox="0 0 420 120" width="420" height="120">
  <defs>
    <linearGradient id="sg3c" x1="0%" y1="0%" x2="100%" y2="100%">
      <stop offset="0%" stop-color="#2563EB"/>
      <stop offset="100%" stop-color="#3B82F6"/>
    </linearGradient>
  </defs>
  <style>
    .wm-my { font-family: 'Inter', system-ui, sans-serif; font-weight: 800; font-size: 48px; letter-spacing: -1.5px; }
    .wm-crew { font-family: 'Inter', system-ui, sans-serif; font-weight: 800; font-size: 48px; letter-spacing: -1.5px; }
  </style>
  <!-- Symbol -->
  <rect x="8" y="8" width="104" height="104" rx="26" fill="url(#sg3c)"/>
  <polygon points="60,30 78,42 78,66 60,78 42,66 42,42" fill="rgba(255,255,255,0.15)" stroke="#fff" stroke-width="2.5"/>
  <polygon points="38,28 48,22 58,28 58,40 48,46 38,40" fill="none" stroke="#fff" stroke-width="2" opacity="0.7"/>
  <polygon points="62,28 72,22 82,28 82,40 72,46 62,40" fill="none" stroke="#fff" stroke-width="2" opacity="0.7"/>
  <polygon points="50,68 60,62 70,68 70,80 60,86 50,80" fill="none" stroke="#fff" stroke-width="2" opacity="0.7"/>
  <circle cx="60" cy="54" r="6" fill="#fff"/>
  <circle cx="60" cy="54" r="12" fill="none" stroke="#fff" stroke-width="1.5" opacity="0.4"/>
  <!-- Wordmark -->
  <text x="136" y="76" class="wm-my" fill="#111827">My</text>
  <text x="220" y="76" class="wm-crew" fill="#2563EB">Crew</text>
</svg>
