<svg xmlns="http://www.w3.org/2000/svg" viewBox="0 0 16 16" width="256" height="256" shape-rendering="crispEdges">
  <style>
    rect { width: 1px; height: 1px; }
  </style>
  <!-- Background -->
  <rect x="0" y="0" width="16" height="16" fill="#DBEAFE"/>

  <!-- 시안3: 중성 + 약간 여성스러운 — 숏밥 헤어 + 부드러운 표정 -->

  <!-- Hair (short bob, slightly longer sides) -->
  <rect x="5" y="0" fill="#1E40AF"/><rect x="6" y="0" fill="#1E40AF"/><rect x="7" y="0" fill="#1E40AF"/><rect x="8" y="0" fill="#1E40AF"/><rect x="9" y="0" fill="#1E40AF"/><rect x="10" y="0" fill="#1E40AF"/>
  <rect x="4" y="1" fill="#1E40AF"/><rect x="5" y="1" fill="#1E40AF"/><rect x="6" y="1" fill="#1E40AF"/><rect x="7" y="1" fill="#1E40AF"/><rect x="8" y="1" fill="#1E40AF"/><rect x="9" y="1" fill="#1E40AF"/><rect x="10" y="1" fill="#1E40AF"/><rect x="11" y="1" fill="#1E40AF"/>
  <!-- Side hair (bob length to jaw) -->
  <rect x="3" y="2" fill="#1E40AF"/><rect x="4" y="2" fill="#1E40AF"/><rect x="11" y="2" fill="#1E40AF"/><rect x="12" y="2" fill="#1E40AF"/>
  <rect x="3" y="3" fill="#1E40AF"/><rect x="12" y="3" fill="#1E40AF"/>
  <rect x="3" y="4" fill="#1E40AF"/><rect x="12" y="4" fill="#1E40AF"/>

  <!-- Antenna spark -->
  <rect x="7" y="0" fill="#FBBF24"/><rect x="8" y="0" fill="#FBBF24"/>

  <!-- Face (warm skin) -->
  <rect x="5" y="2" fill="#FDE68A"/><rect x="6" y="2" fill="#FDE68A"/><rect x="7" y="2" fill="#FDE68A"/><rect x="8" y="2" fill="#FDE68A"/><rect x="9" y="2" fill="#FDE68A"/><rect x="10" y="2" fill="#FDE68A"/>
  <rect x="4" y="3" fill="#FDE68A"/><rect x="5" y="3" fill="#FDE68A"/><rect x="6" y="3" fill="#FDE68A"/><rect x="7" y="3" fill="#FDE68A"/><rect x="8" y="3" fill="#FDE68A"/><rect x="9" y="3" fill="#FDE68A"/><rect x="10" y="3" fill="#FDE68A"/><rect x="11" y="3" fill="#FDE68A"/>
  <rect x="4" y="4" fill="#FDE68A"/><rect x="5" y="4" fill="#FDE68A"/><rect x="6" y="4" fill="#FDE68A"/><rect x="7" y="4" fill="#FDE68A"/><rect x="8" y="4" fill="#FDE68A"/><rect x="9" y="4" fill="#FDE68A"/><rect x="10" y="4" fill="#FDE68A"/><rect x="11" y="4" fill="#FDE68A"/>
  <rect x="4" y="5" fill="#FDE68A"/><rect x="5" y="5" fill="#FDE68A"/><rect x="6" y="5" fill="#FDE68A"/><rect x="7" y="5" fill="#FDE68A"/><rect x="8" y="5" fill="#FDE68A"/><rect x="9" y="5" fill="#FDE68A"/><rect x="10" y="5" fill="#FDE68A"/><rect x="11" y="5" fill="#FDE68A"/>

  <!-- Eyes (slightly larger, softer — 2x2 with highlight) -->
  <rect x="5" y="3" fill="#2563EB"/><rect x="6" y="3" fill="#2563EB"/>
  <rect x="9" y="3" fill="#2563EB"/><rect x="10" y="3" fill="#2563EB"/>
  <!-- Eye highlight -->
  <rect x="5" y="3" fill="#93C5FD"/><rect x="9" y="3" fill="#93C5FD"/>

  <!-- Subtle blush (just one pixel each) -->
  <rect x="4" y="4" fill="#FCD9B6"/><rect x="11" y="4" fill="#FCD9B6"/>

  <!-- Gentle smile -->
  <rect x="6" y="5" fill="#D97706"/><rect x="7" y="5" fill="#D97706"/><rect x="8" y="5" fill="#D97706"/><rect x="9" y="5" fill="#D97706"/>

  <!-- Neck -->
  <rect x="7" y="6" fill="#FDE68A"/><rect x="8" y="6" fill="#FDE68A"/>

  <!-- Body (blue top — same uniform but slightly fitted) -->
  <rect x="4" y="7" fill="#2563EB"/><rect x="5" y="7" fill="#2563EB"/><rect x="6" y="7" fill="#2563EB"/><rect x="7" y="7" fill="#2563EB"/><rect x="8" y="7" fill="#2563EB"/><rect x="9" y="7" fill="#2563EB"/><rect x="10" y="7" fill="#2563EB"/><rect x="11" y="7" fill="#2563EB"/>
  <rect x="3" y="8" fill="#2563EB"/><rect x="4" y="8" fill="#2563EB"/><rect x="5" y="8" fill="#2563EB"/><rect x="6" y="8" fill="#2563EB"/><rect x="7" y="8" fill="#2563EB"/><rect x="8" y="8" fill="#2563EB"/><rect x="9" y="8" fill="#2563EB"/><rect x="10" y="8" fill="#2563EB"/><rect x="11" y="8" fill="#2563EB"/><rect x="12" y="8" fill="#2563EB"/>
  <rect x="4" y="9" fill="#2563EB"/><rect x="5" y="9" fill="#2563EB"/><rect x="6" y="9" fill="#2563EB"/><rect x="7" y="9" fill="#2563EB"/><rect x="8" y="9" fill="#2563EB"/><rect x="9" y="9" fill="#2563EB"/><rect x="10" y="9" fill="#2563EB"/><rect x="11" y="9" fill="#2563EB"/>

  <!-- Badge star -->
  <rect x="7" y="8" fill="#FBBF24"/><rect x="8" y="8" fill="#FBBF24"/>

  <!-- Arms -->
  <rect x="2" y="8" fill="#FDE68A"/><rect x="2" y="9" fill="#FDE68A"/>
  <rect x="13" y="8" fill="#FDE68A"/><rect x="13" y="9" fill="#FDE68A"/>

  <!-- Legs (slim pants) -->
  <rect x="5" y="10" fill="#1E40AF"/><rect x="6" y="10" fill="#1E40AF"/>
  <rect x="9" y="10" fill="#1E40AF"/><rect x="10" y="10" fill="#1E40AF"/>
  <rect x="5" y="11" fill="#1E40AF"/><rect x="6" y="11" fill="#1E40AF"/>
  <rect x="9" y="11" fill="#1E40AF"/><rect x="10" y="11" fill="#1E40AF"/>

  <!-- Shoes -->
  <rect x="4" y="12" fill="#1D4ED8"/><rect x="5" y="12" fill="#1D4ED8"/><rect x="6" y="12" fill="#1D4ED8"/>
  <rect x="9" y="12" fill="#1D4ED8"/><rect x="10" y="12" fill="#1D4ED8"/><rect x="11" y="12" fill="#1D4ED8"/>

  <!-- Label -->
  <text x="8" y="15.5" text-anchor="middle" fill="#2563EB" font-family="monospace" font-size="1.2" font-weight="bold">Ari</text>
</svg>
